<svg width="23" height="33" viewBox="0 0 23 33" fill="none" xmlns="http://www.w3.org/2000/svg">
<path d="M11.3851 1.19971C5.65167 1.19971 1 5.67951 1 11.197C1 17.5456 7.92342 27.6064 10.4656 31.0814C10.5711 31.2281 10.7094 31.3474 10.8692 31.4297C11.0291 31.512 11.2058 31.5549 11.3851 31.5549C11.5644 31.5549 11.7412 31.512 11.901 31.4297C12.0608 31.3474 12.1991 31.2281 12.3046 31.0814C14.8468 27.6079 21.7703 17.5507 21.7703 11.197C21.7703 5.67951 17.1186 1.19971 11.3851 1.19971Z" stroke="white" stroke-width="2" stroke-linecap="round" stroke-linejoin="round"/>
<path d="M11.385 15.2107C13.2969 15.2107 14.8467 13.6424 14.8467 11.7079C14.8467 9.77334 13.2969 8.20508 11.385 8.20508C9.4732 8.20508 7.92334 9.77334 7.92334 11.7079C7.92334 13.6424 9.4732 15.2107 11.385 15.2107Z" stroke="white" stroke-width="2" stroke-linecap="round" stroke-linejoin="round"/>
</svg>
