<svg width="27" height="28" viewBox="0 0 27 28" fill="none" xmlns="http://www.w3.org/2000/svg">
<path d="M11.2272 1.5271C9.20448 1.5271 7.22715 2.13402 5.54529 3.2711C3.86343 4.40819 2.55258 6.02438 1.77851 7.91528C1.00443 9.80619 0.801898 11.8869 1.19652 13.8943C1.59114 15.9016 2.56519 17.7455 3.99549 19.1928C5.4258 20.64 7.24811 21.6256 9.232 22.0249C11.2159 22.4242 13.2722 22.2192 15.141 21.436C17.0098 20.6528 18.6071 19.3264 19.7309 17.6246C20.8547 15.9229 21.4545 13.9221 21.4545 11.8754C21.4543 9.13092 20.3767 6.49889 18.4588 4.55824C16.5408 2.6176 13.9396 1.52727 11.2272 1.5271V1.5271Z" stroke="white" stroke-width="2" stroke-miterlimit="10"/>
<path d="M18.8574 19.5959L26 26.8231" stroke="white" stroke-width="2" stroke-miterlimit="10" stroke-linecap="round"/>
</svg>
