<svg width="31" height="28" viewBox="0 0 31 28" fill="none" xmlns="http://www.w3.org/2000/svg">
<path d="M10.091 26.8231C10.7186 26.8231 11.2274 26.3083 11.2274 25.6733C11.2274 25.0382 10.7186 24.5234 10.091 24.5234C9.46338 24.5234 8.95459 25.0382 8.95459 25.6733C8.95459 26.3083 9.46338 26.8231 10.091 26.8231Z" stroke="white" stroke-width="2" stroke-linecap="round" stroke-linejoin="round"/>
<path d="M26.0001 26.8231C26.6277 26.8231 27.1365 26.3083 27.1365 25.6733C27.1365 25.0382 26.6277 24.5234 26.0001 24.5234C25.3725 24.5234 24.8638 25.0382 24.8638 25.6733C24.8638 26.3083 25.3725 26.8231 26.0001 26.8231Z" stroke="white" stroke-width="2" stroke-linecap="round" stroke-linejoin="round"/>
<path d="M1 1.5271H5.54545L8.95454 21.074H27.1364" stroke="white" stroke-width="2" stroke-linecap="round" stroke-linejoin="round"/>
<path d="M8.95461 16.4748H26.6705C26.8019 16.4748 26.9293 16.4289 27.0309 16.3446C27.1326 16.2603 27.2023 16.143 27.228 16.0127L29.2735 5.6643C29.29 5.58085 29.288 5.49474 29.2676 5.41218C29.2472 5.32961 29.209 5.25266 29.1557 5.18686C29.1023 5.12107 29.0352 5.06807 28.9592 5.0317C28.8831 4.99534 28.8001 4.9765 28.716 4.97656H6.68188" stroke="white" stroke-width="2" stroke-linecap="round" stroke-linejoin="round"/>
</svg>
